# xmcd
#
# Track frame offsets: 
#        300
#        19436
#        36719
#        51925
#        65636
#        76471
#        91508
#        103578
#        118151
#        152050
#        168111
#        191876
#        206285
#
# Disc length: 2969 seconds
#
# Revision: 0
# Processed by: cddbd v1.5.2PL0 Copyright (c) Steve Scherf et al.
# Submitted via: ExactAudioCopy v0.99pb5
#
DISCID=b30b950d
DTITLE=The Blues Brothers - The Blues Brothers
DYEAR=1981
DGENRE=Contemporary Blues
TTITLE0=She Caught The Katy And Left Me A Mule To Ride
TTITLE1=Peter Gun Theme
TTITLE2=Gimme Some Lovin'
TTITLE3=Shake A Tail Feather
TTITLE4=The Old Landmark
TTITLE5=Think
TTITLE6=Rawhide
TTITLE7=Minnie The Moocher
TTITLE8=Sweet Home Chicago
TTITLE9=Jailhouse Rock
TTITLE10=Shotgun Blues
TTITLE11=Soul Man
TTITLE12=Hey Bartender
EXTD=
EXTT0=
EXTT1=
EXTT2=
EXTT3=
EXTT4=
EXTT5=
EXTT6=
EXTT7=
EXTT8=
EXTT9=
EXTT10=
EXTT11=
EXTT12=
PLAYORDER=
